%TF.GenerationSoftware,KiCad,Pcbnew,9.0.7*%
%TF.CreationDate,2026-02-14T08:27:06+05:30*%
%TF.ProjectId,LED torch,4c454420-746f-4726-9368-2e6b69636164,rev?*%
%TF.SameCoordinates,Original*%
%TF.FileFunction,Copper,L1,Top*%
%TF.FilePolarity,Positive*%
%FSLAX46Y46*%
G04 Gerber Fmt 4.6, Leading zero omitted, Abs format (unit mm)*
G04 Created by KiCad (PCBNEW 9.0.7) date 2026-02-14 08:27:06*
%MOMM*%
%LPD*%
G01*
G04 APERTURE LIST*
%TA.AperFunction,ComponentPad*%
%ADD10R,2.540000X2.540000*%
%TD*%
%TA.AperFunction,ComponentPad*%
%ADD11C,2.540000*%
%TD*%
%TA.AperFunction,ComponentPad*%
%ADD12C,1.700000*%
%TD*%
%TA.AperFunction,ComponentPad*%
%ADD13C,1.800000*%
%TD*%
%TA.AperFunction,ComponentPad*%
%ADD14R,1.800000X1.800000*%
%TD*%
%TA.AperFunction,ComponentPad*%
%ADD15C,1.400000*%
%TD*%
%TA.AperFunction,Conductor*%
%ADD16C,0.200000*%
%TD*%
G04 APERTURE END LIST*
D10*
%TO.P,BT1,1,+*%
%TO.N,Net-(BT1-+)*%
X156517800Y-98000000D03*
D11*
%TO.P,BT1,2,-*%
%TO.N,Net-(BT1--)*%
X166500000Y-98000000D03*
%TD*%
D12*
%TO.P,SW1,1,A*%
%TO.N,Net-(BT1-+)*%
X147500000Y-101000000D03*
X141000000Y-101000000D03*
%TO.P,SW1,2,B*%
%TO.N,Net-(SW1A-B)*%
X147500000Y-96500000D03*
X141000000Y-96500000D03*
%TD*%
D13*
%TO.P,D1,2,A*%
%TO.N,Net-(D1-A)*%
X129335000Y-99770000D03*
D14*
%TO.P,D1,1,K*%
%TO.N,Net-(BT1--)*%
X129335000Y-97230000D03*
%TD*%
D15*
%TO.P,R1,1*%
%TO.N,Net-(SW1A-B)*%
X136500000Y-95960000D03*
%TO.P,R1,2*%
%TO.N,Net-(D1-A)*%
X136500000Y-101040000D03*
%TD*%
D16*
%TO.N,Net-(BT1-+)*%
X154550000Y-101475000D02*
X147975000Y-101475000D01*
X156517800Y-99507200D02*
X154550000Y-101475000D01*
X156517800Y-98000000D02*
X156517800Y-99507200D01*
X147975000Y-101475000D02*
X147500000Y-101000000D01*
%TO.N,Net-(SW1A-B)*%
X139960000Y-95960000D02*
X136500000Y-95960000D01*
X140500000Y-96500000D02*
X139960000Y-95960000D01*
X141000000Y-96500000D02*
X140500000Y-96500000D01*
X147500000Y-96500000D02*
X141000000Y-96500000D01*
%TO.N,Net-(BT1-+)*%
X147500000Y-101000000D02*
X141000000Y-101000000D01*
%TO.N,Net-(BT1--)*%
X166500000Y-96500000D02*
X166500000Y-98000000D01*
X164500000Y-94500000D02*
X166500000Y-96500000D01*
X138791900Y-93101000D02*
X148601000Y-93101000D01*
X137392900Y-94500000D02*
X138791900Y-93101000D01*
X150000000Y-94500000D02*
X164500000Y-94500000D01*
X132000000Y-94500000D02*
X137392900Y-94500000D01*
X130500000Y-96065000D02*
X130500000Y-96000000D01*
X130500000Y-96000000D02*
X132000000Y-94500000D01*
X148601000Y-93101000D02*
X150000000Y-94500000D01*
X129335000Y-97230000D02*
X130500000Y-96065000D01*
%TO.N,Net-(D1-A)*%
X130605000Y-101040000D02*
X129335000Y-99770000D01*
X136500000Y-101040000D02*
X130605000Y-101040000D01*
%TD*%
M02*
